<?xml version="1.0" standalone="no"?>
<!DOCTYPE svg PUBLIC "-//W3C//DTD SVG 20010904//EN"
 "http://www.w3.org/TR/2001/REC-SVG-20010904/DTD/svg10.dtd">
<svg version="1.0" xmlns="http://www.w3.org/2000/svg"
 width="700.000000pt" height="700.000000pt" viewBox="0 0 700.000000 700.000000"
 preserveAspectRatio="xMidYMid meet">
<metadata>
Created by potrace 1.14, written by Peter Selinger 2001-2017
</metadata>
<g transform="translate(0.000000,700.000000) scale(0.100000,-0.100000)"
fill="#000000" stroke="none">
<path d="M3298 6295 c-2 -2 -37 -6 -78 -10 -679 -59 -1354 -406 -1821 -935
-87 -99 -199 -244 -199 -259 0 -5 -3 -11 -7 -13 -32 -14 -216 -347 -284 -513
-36 -87 -89 -245 -113 -335 -24 -92 -30 -115 -42 -190 -3 -19 -8 -38 -9 -41
-2 -3 -7 -28 -10 -55 -4 -27 -8 -60 -11 -74 -13 -76 -19 -196 -19 -370 0 -244
9 -341 51 -560 16 -80 48 -201 79 -300 314 -969 1136 -1697 2135 -1889 196
-38 286 -46 515 -46 234 0 356 10 518 41 42 9 87 17 100 20 53 10 69 14 171
43 166 48 287 95 451 176 290 142 521 305 737 519 451 448 722 989 814 1626
19 130 27 512 13 625 -4 39 -11 90 -13 115 -3 25 -13 84 -22 130 -9 47 -18 96
-20 110 -38 213 -200 618 -332 830 -76 122 -191 284 -250 352 -475 553 -1098
897 -1782 984 -30 4 -71 9 -90 11 -41 5 -477 13 -482 8z m367 -1059 c219 -49
384 -152 528 -327 20 -25 37 -51 37 -58 0 -6 4 -11 9 -11 13 0 87 -167 105
-235 80 -311 -7 -629 -231 -851 -156 -154 -346 -238 -568 -251 -177 -10 -362
38 -512 133 -294 187 -451 532 -396 872 38 236 157 432 350 574 87 64 227 129
312 145 14 2 44 8 66 13 45 9 254 6 300 -4z m38 -2446 c87 -9 152 -18 182 -24
442 -92 798 -282 1103 -586 51 -51 102 -106 115 -122 12 -16 34 -44 50 -61
l27 -32 -105 -103 c-169 -164 -371 -306 -585 -410 -103 -49 -123 -58 -265
-108 -62 -22 -196 -59 -250 -70 -11 -2 -31 -6 -45 -9 -52 -10 -92 -16 -215
-31 -68 -8 -356 -8 -425 0 -160 19 -229 31 -335 57 -244 62 -469 158 -680 292
-69 44 -148 100 -165 117 -3 3 -36 31 -75 62 -38 31 -103 90 -142 130 l-73 73
24 28 c14 16 40 47 58 70 55 69 208 216 293 282 243 190 506 319 805 395 94
24 138 31 290 49 81 10 323 10 413 1z"/>
</g>
</svg>
